<mxfile host="65bd71144e" pages="1">
    <diagram id="UnQeQf4PPMaO_wAqGCnH" name="Page-1">
        <mxGraphModel dx="1064" dy="701" grid="1" gridSize="10" guides="1" tooltips="1" connect="1" arrows="1" fold="1" page="1" pageScale="1" pageWidth="827" pageHeight="1169" math="0" shadow="0">
            <root>
                <mxCell id="0"/>
                <mxCell id="1" parent="0"/>
                <mxCell id="10" style="edgeStyle=none;html=1;entryX=0;entryY=0.5;entryDx=0;entryDy=0;" parent="1" source="2" edge="1">
                    <mxGeometry relative="1" as="geometry">
                        <mxPoint x="150" y="709.925" as="targetPoint"/>
                    </mxGeometry>
                </mxCell>
                <mxCell id="2" value="" style="shape=actor;whiteSpace=wrap;html=1;" parent="1" vertex="1">
                    <mxGeometry x="40" y="681" width="40" height="60" as="geometry"/>
                </mxCell>
                <mxCell id="22" style="edgeStyle=none;html=1;entryX=0;entryY=0.5;entryDx=0;entryDy=0;" edge="1" parent="1" source="13" target="21">
                    <mxGeometry relative="1" as="geometry"/>
                </mxCell>
                <mxCell id="13" value="" style="shape=image;verticalLabelPosition=bottom;labelBackgroundColor=default;verticalAlign=top;aspect=fixed;imageAspect=0;image=data:image/png,iVBORw0KGgoAAAANSUhEUgAAAOEAAADhCAMAAAAJbSJIAAABHVBMVEUiIiIA2P8A3v8A2/8A3f8A4P8kAAAhIiIlAAAjISIiAAAhIyIB1/8A2P0iICAiIiAjCwAiHBsiCwAA4/8lISIkBQAiDgAoAAAgAAAhISQkHB0iHx0jGRcacoEhBQAlCQAjFQ0iGRghJB8kICYkDwseSVEjFRQjEgogGxYhFxIIxeMQkKUJ0fAhFhoiKi0Mwd0WmaseT1UQrsQbWGAgNz8YfI8WjaIOp8AbbXUcZnIKyOIeSVcfP0UkEgAIze8VhJIUm6kfMC8gPjokGiQeVFYLwNQeGAAaZGkPvd8aeoQUjZkPtcoC1e0hIywQpLUjPD8kEhcSmrUeLSgdSkoeQEwhWGUgLzgWhY0bUGEYb3EiAQ8cJRoWbIANtNEQssOykEXpAAAgAElEQVR4nO19eUPiyNY31EIIoRLAgIawg2xGVhWhVbRvOz2Io93Tbc+99xnm+3+MtwKpysIWbOn7x+uZVRuSOrWc9XdOBQLv9E7v9E7v9E7v9E7v9E7v9E7v9E7v9L8jRZb1uCwr/9NBiFIpoOqF1FEklUokQ7HCaVrRArL4Uw/VApoiZyrJyOnd88ePUv6wUJcETRTeaMy7kST+q9L4MB60DUrN2eCi30qm0kLppx4qx2O558vOzEAYYIAepw8vyYoi/dy0vZbSibtbA2MCCZz/jTBqd7q1UPz1W0uvpLq3Iwzow4KEzP9GeDRuVP4XayhkTm8RgEFGxPyHAGx0jpN19RUj0uR6+PniBiNI+EOj5mMJfhyGy9Lbs7CFKp8MAB2DWbBpLii+z9Zr8s4PzKT6PQDMdQt6Hxo8GPz2rz3wsIEENZeFiCwPh/4cJRAY43hNFHY4PFom9Pl3unxe7qyHRnG7LpZ+5WGUU5ODpbl2DgkbD3Le/8aq5/r3B2j9A00W479wo0pidYi8G9RFkBD0OGlUA8r2USmikvswxd7nRc2Zito7FcwS2i/TjkLmDNkvp69HiCwfnyhufo6kxW1bS9AK6Vuw4vBReUrPOf+DKDhJldRfwh+d9UibDoCzBxCCCADvqpIoOvjnrLLtYfHQ5SP0nD8qrQC6aTabwCGsIe6mf9UiFi4xHwowOsOrVuvuanjRIwcw6OSSBBE6j+jrH6RoUq01xa6ZgVGIHwfZ41Y1kUj90X+iutHiErZDv0jWyGnDXsCT62RGURQ1XawlEx86I4xc4yXg/rmydua1dCSL3QKGgMdONxL7kpYD9Gt6PfyxjaPWI3G28UsYlKrn2NqGkPwnogSUMv2tIAVUMV6pDnv0UAajNpsETULyygMkBhr1nnsBCW5flvNxap2W58sllIV08Z6dRjjK/xIO1SNjceKiAJ3nPENXismzr26zhOBpq6YtP0cU8l0DOCSUKS/7oYL3c3rZeh9d32H9V+zTzBBbwyL/RAJL2kCLx1on0GXNwZt+Ugy4xyaJwuGYnjGbQ4inn0JxdWm19Xifv3AWLu+RswWJUvgfwsTMWXzlZ/Tk3QA7xSOE46O0ey7UeuMf4FB3QfA4TKZXPU3SIz02Dehug9x6IxIVjSkv8BRe8yGpnDu+d+i4KMKz305dH2mcjZxbGaKLcGaddRC/YtIIn9felJsVpGiNoSVnguh49RLOP1aPTB6dy4hHZwXb4RDz/Uc2aqpa6QY9i0nCWpl7dM8UxnTdpL4dSZXOQh8QdH+40UeqKoMD50597Cf5n4XPAbSNIggmoZUblFGDKeAobu3utOxIaqK5OPYEjAsrJKRN9PxkDb4TqR8Cs6G5r65oRyeYWAqFWn+4/VxTNlorusaUChoWN77050lKS0yl46u1m5R9uNJynEZq/5yETUtcPho4tCDBJ6n0FntTy00X0wrhyd4PIhXd1siM0LbPipIeenDaOPiJLpYcd9ppyOjnVG2LB1L6cr6YKQKnoZ+LA20lbtAE4Sy5/eOBQKhvEFvioF4oc33PmSbkoH1X9fGUzIs1KeSmouw5ZhP7aslAdOFnvyhK9c8226n0P2B2N3JYA7iT8iU55FNm68O7fXtQoRnj8NLP5AcEJZ2gMpVzBZ3mDjUERH8OUbgJF4uOu9tO/0+SFPrdGiFYrw09pIfYzl4Mku9R9Dnsd0FyM4tDcNnYr5OoVAxm0bT8GlCCevgZ2I7j4n9QFBnHNdmv6Kda2No6fxVeOXSfJJcgWwrV/1xqhQ9G0OPHg9HZDo5CZcw47Kx3N9+E9I/Wm6hQ8/8tSa3fjdyuMWyfNnYQitWstdHRIL9fWapf4YW1BZu5neyn+l3b4QpCOE1vtNOWvv55NyX1ekp3LcUEfw/vNJflQstwiBsjIu+kuTN9zuHRbiPelYr9hVNHYHurSeMiuTp1blP4tNvXi122S9u7zezORI22BYdoFtnpi+EecJxC6nrdRnaRGPFjm8P9hr6ZWWpy6N/IF7RQxxP0JQfnhzsMNX1sTRBshvbLYfqTxSFs5/xzqIeosPeEtRG4TPofq83h73teQyZpKIcJ/xzmL8FSVokQ1PVl91nv5RyG9qsP498snxY2Y371tdroQh72hXwxo0HjzLdKjDNJA9tH+11D+Y5r/JTf78TPHrkDBZrfH5mngchI9muXZvpsDWebYyc/TYrEODSq/uZS1BvUX1rELBAx7lLf7RAN6h3J/sZ7OuQcJvfMYcFgx8hnTKgccUTu8VW9fP3C9QY5eAj7O1XVrPUlNIj9zPi3kxJmlgk487HDxFI50rEi1nQZUbehiVoqS1nmyZaa6icbXrhgHHZ2sIdfQ0qkbR0p3PVhWJbU60sWUoQQZ+daXgo/cNFKzFX1Yb9df2X+4biy39SFmmM+PnVFt39cSR/j6IIbEsXjpGJqGFk6fOL6Hxp6ycd2T/SYj7/vDJt4PUCLTQfOC1s/LYk6TzUG8YDbzHKqbUubqR8FF/mdbetP9Z8Z/3ZSqhfWsUIdH+oiwlY8GEX31/bBlUsGZxE8+PCHQmym8HN6z7G2zCUT29OtA1NiFyy4GoQ3Ld0+QELm2BawoL914yks1kaQpu+XQ1FnRj682eqoVV8wg2wQ8M1pokmBGMcCUNXa2hbUil9Z8B14k9gzik9ItxBLyJ5ujs2KAY2aL9HFCuKsS41JAenwlgtUNI1sFjZi/XKRj6TmcH4XqNVrSIxZJ4gcHMc3WjVy6J5YApCAjjcdrkqhKQwuVpgq/thm5Vp7WJwNBAepPTOolY5mLGA62ewa5FjKgnoR9zndA2gSVJ0usRXzIeBl41EUcgNkHcPzxt4z+ZWOpd/Q1w3ANVWp/9tx0KRqPF4sZoqZhknz/2bqXz7xuAYyVGVDgk1KNi1wBH7J7IMpF2VYXI/6oms9RFlPn/L8BCTD5+OXfn94mbVoOBz2+91vf15wCxUMDvX1iKe4ZOE8CXrefyI/zrxtEtQdQ5ICim5imIvVRChX0c6+9UCQaTyIAAaYEmA0/wEjzB1/gs8//tDz4cR1oSgriurOeMeZ/0uML3tnkC6Pwc2Lov1bNVNNhfLS8fD8a69tGHgJa7iZqDkGgQkWP8n2z75E8oVq3CFeazylN90t/vU6ijBRg86roigp8mk1FameDU1IO0TYxPFR6Rn1xmW2cUhMxIK52hgZzd5JtivkQ7HTuCBJomZZpZTDTuEXcJhgSRLQS8Rr+cjdp7++to0DDCCCyxjM1xChE0X/uumdDJ8r4UqjFLuxODy43L+gCQQY3CRIbo66497IACa81IQizOkNGJw/hkQhoDvicXoyVESGLcI/fgXCVG5xNUAnegnM/sZkrie4YYrT8BkS+ClS0pEmz7DtlzuLohwxjwaRvQbaFFFU6MG7Gt/YIJmNZM5AdI6kMYXInNCCFj8sNvV8g298DMdywtmnL/mMLgf2ZNeUS5WjTw9NgHyvHMGm1jBums32bDYbDAZPA4t69Od28+aGIKocoe8nQmwMPpfyGeXNWSyXFL0Q/tAZAbCiyCI4L4kImnY2cY6WPH7+8P2sJTZSsSSlWMIk+u9YLJajlMwV6lLr+bg/dqT5LYFMnEB9m6Jm7ZHRG37JpyUfZQA7kHIafr4Yrav4WJQoISr70KjdYeqSBPHfsbguy2s9I2VRg5eJ9HhgCg4GIwNiQOD6Q06ZfBx0Y1X17fBfciV3OUNr9xKBAB+A9uBieNyqhE+ZyQPhzAQSbrKoKZnVCqrMvkNgL3RYf+5POrMbatetK+pAdHM3x6XkmwBPtIAc+/PBAKvfRaIIQ2N2cnlViMVqmbiqhf7h62z4RWtotSGPveHLgq5T4zYf0/rjQZMeUm+pgkUQgB5dSOln1YeYCX0bALi2YGd0MjyrRq4zquX+FYZ8pcHfvjMbmiN/apyW5khnSanX8skStSnWbVe6W2fDmP/81RIpsiCcRrpTDKOuWSQOLUF64YygKmW6E+enrfRlxMaDZhG/ISNRKf8J0EInQPB1odXLmkBtUjVdCzWZIx118RoNRukOGmVDBfWVMkcs1cPdKVhaPmohA3YmITgtOc97/tbOSbR2qHCRKlnK4uLp4Nhpe4r1DwtJS9lbdVQgGGUb1ddsVUnWks8DV32IibqPzlXS5RnLQIFLx9Ol9BUfAz6vBHaQdUpuBq2gDmznHeE0qdIB1sSOPnR+P6BcRoNOPUL9rubwKL47YlGp6reeM04lePDAuP10lKqG2yxROnOk1ctHU7aEsL1jqjZ+xScTTxyoRyFm2YgEPoVTubPxCAGz6ss5LgSmx8nNYbFl0kOXhregjK7eU7+WKspqoDK2rH2CWnaCpj60nPZoFBzvGnyPPTCXBRqKvfqZLod496kpE0/lri6WSo9gEHfqu2xVQSy0egeuZ5j6fHqZic29eiEgnzH27UyJohd5aAZ3cjvGU6RA7MYKPgZBJ8F/z71RYlhSM16LdQdUSblFLDaGEeqP+3uZKCcvIY46H0CXr/MxXOTHw06ykakF/RHFCkc8EyOt73r4tQYDslBbwUZ2JljCAj3FrKOmlU4T0qTprpiiQ3zS/bnHkhqvPmFHmR3d9Xh0Hs/rUsAedYFjBeEfC2kqpVvWr6IQX9ZWMqgEVFETA9IqqSCpqQHP9s8igflnlHSfwZ8PeBxRUQVNL6RepmYcnIsK6jAb3bwQ2D6z4vXZyKkh6DdHw/C1Z/3jP9ipAeNFUlaL/MP2E5werk56yplMo9bIpFcbcukf1smA0YNhcf4RKflkhRGjRs0DJ84cfutBh81uLuP4cKv8FrVc33CV6+D2MJxRNLf5LGkJqz6AkPsj0QQ7Zz6xtyF0pbuDDUJAkqT0dVjq/n1+fj78Voj8tgKdKqYuLO1LNUN1fiLUMoMNoI439yto8aOr3vw8cn8VDBLlLYuohbMOEUp1+81leKVUbGQxi518k82EYGrGEy1fE54PK4KcDl2dtM1AnBkoNWaTVnJ5mZVqk5t847nJV5gwSQo+rDKz45HjKXDUAgRRW49vXsbc2FURiE+qBWEl2Fz+k0EWUCdvKmYWn6JeoeSVo1L9qDvDi6GYniT19cltaxly0PjM9Ckx/jAfEuYCbbQyWymI9dBw5FwTNGpt0FNq6XBsIwgh3aDPMXmdBE4yJwLe1OWAWGGlaOQg6+lioUoFsbcohrU+Mh8K+OtI8eC81dyMWEYw6uRMBBYbDjvtXlJEqZo5AUHHsI1WXVgXkRMiExt/FiVgEsmsX/E6w7RSRzcTqEystSdwlBTdG1BLvRgrQqkEz7S6eyhy+RuwTInowVU8EGPKMIiW9oVj2Iff7SIVahmMSmtUlShdvwArdGBWPLavUuKmaogI11SziBJnP0TBi7vvh6rls8vl9ovJMM7iaddsKCFWsBKEvZxaMRYjj5o/rB2IrGUSJ6zM1ISutlPqancjffZoK0H8lEhrm6xZ7frEqkUKgufDB7ZNlpC10nV2bYMJ+HjnOTT6HXf3QffLhGl1MNyM8Ssl+zboIwieIitLq+VrB9YcnEdkYaMNJMXPAK8QSDH5RPA3F5BIkBovq1dwsTYjzTOU1INDq7b5US8ENgW7BTFQpVrchiFNVjrfMZ7No3bT0CvwV1B4xo20W8gM8YEbOizWtce1DJqT0/MUhao8zkMQE3sEnWyFeknp+r1dlYpWVSjrZ0zKkOhB3w94rPiZWxRRvrXOXAsvyEfTzdHeg6E7v61X7VPLK8LQ3XbYlKIne2z5CeotKxc50uNmJfyPr7oUuXbjHT3qhFxNq5T0C97IYTBofPGcmdjII3YJ7PkI5guKXJky5U9wv+hlQWWpXSpuJ/5g9FrqAbhHSx49yBgtOVsTYuVfAeMvbuVSH2L3J+aeoZ8B6dcjbr+1I96Dm+9AVt878FsnYAKGXc42vPCU7BS/e+ZgmWAz5e4iUM61oTNMAaMjvwiT9BliSE/c90AnZZ0JBGjofp1XKdHDrpCJUVbco02duNdjBUUPjt3vEwr/du1sgvwW4QtKilvL8MmDtM2wmGyU+nY+GTQraFxxfjz2ejjh5pZTSAk9uMWarOVmLg6NuM8KK1FSTBiS9a26eyiVDgstjY52SLMm28g1FPcKCnJrvS60v7aEPsh0nQ4q3AUVXO1bPibxVoAetS3LDlzE/AetpC//cexCah27p80MTPjg8PG/nnMvhHqOreG/lJNSiadv3fhXRYswtBrapc5W0VJMP1OB8JjwyH2xkd0qaMx3ejHxUvG73TgEDRI7JAtFthmjbi9VCcSIZXMjbZeywlKF5/6i+KImuCVpmUdzNhL2NiwplZN2soLuth04FH7LYpYRd4oaUakiaw0NfQcOxVL6Dxu20JI9ckarXfjgkOCPnleW/+8LNxTIKLJLvlepssYk0MNhkqGSwY9dAp1qfcJ5ANmCxxnRCuf+1tDDoVKOTLkzBPuNHZrtiY1zqzDLs4bSoXWeogcvxbVfXyblv7YVAY2cZ/21qp9zGMXeZplS/PiA79LdCh2V2IApBU8HjSTTI+hrfoeESubFIUvxpOBeQyXexVuMNnNqHr02lBZxylKPP7aZpMgN0+tZd3y4dsE0F9yloj8ydQwFGlW3LFUC9TUJXCehQc7z1GLXufRwsENdLK/5DuIr93GLd5nvRBWi7+fFr1wM4Im32is09cHh2O0/SULIZa5HD559KjBREivs1MCRF6dZYFkVtK6/1QqKdVxpLnST8uAj/KgLcOYJXBX+7c4KwY4Pd9wkqUy9eGaX3nqNzxTbplE0Ta7v2OQiseXx5PC5J18h3qHNyLAoQbOc+ztpr9MMiaL4kg1K+pt1KggB373rJP/gnhDuHPpisMSziHy6H0/d21SuPG1uA0qHMvRsbV56zz5iGmC+TmK6dMPiHrCX9E6KljzhjgeYJP0sonjU9I4XPMRcYxHqz1swp9RV9WQaYm332SVReJPYboYIAb3KMtNBSOXMkhKVNYM/8uBz2EfFnB0TDiJWGvNY1t1zx1O7q1eQYI8LIDaGlsomQe6a4f5WJa1p9cqMrSBBT6uSADwLMgcg+OjBGBtwX2zABAro5D3Ln2xvEKfmors/rlZGLKmFLzm8anszDCGj3PNoIjSEVZaZmuvxHC7B55EtcC0p0LIUTBQONDvK9cPzLfnjzZp9aq5gL+/ZLJW/LAw8ge0jbp/g5/Qmn04Qxcaz3TyF4M9fVh1cRZXsuHEU3x5tPova9TlmCJhumLWpI6AX8Zrfx2sMG0jwrOYR23LaYNIXf6p8sMozITjZGKoRA5G+Yesl3AmvLv+SqseQlyIRMGtVNzaYDnHl2g7rLWtySBAfn3qm5vS7sWzaRAkdd68muLJPkhg7Yfl1OI2Uwu2gNXFGZH3TS0WM5x/sotQo6IUD6/pGVy6BI+5tfA6r6wVO0c75TqqBygXf4e0jT4lTud6aYi8MmJhnMOzB3anKD8A2Bj5Om2lYtiyfNxRGpc7uoWP3tRsrT6FJYum/WZvDIMKdemHtVk0NOC6KOs1K3WC5QTz0WLaSpkQmc3SOswcPaB97GQyI1ORe7EsCBkkxIJ8y+b5Aci6TEJCKyTEgtiGLmuV0ab2BoIQm2LGjgDEMx5ebsJokWywR6mqagq52zudmVFyewlr94maRcp9XjmA0M5/spQYv1YfoznTt8ydWygeC1Z1LVT3cbbt6FLaFzVgl6ejSadcT/M9ZeFl3BszwI5Mt+JNuGr38WAbRwwo7Uqmk+p22YabxgdG7eM6taiuZ48kV/FAz36p/Y2g9NF4V5FQrrSdMHNAfMPstvqVNrZoaUiVgpxsh7Eh5qje8Lly+x8OPC4RHlefgEbxbBkSUFbGYylXvro6vtP/mCtTSXPqIdD3hKtuIL9KskTbTHaOk4DZsSuV0qvRgojbt4ggwSG3vTS9eHxsuzxwbD8WYJ+GuiH9wYNuDNblhHowlvbV1e3o8Hl8Hl1LThrUlqfv6ZT5QpTax0rBRr/ETiMeKJ4ar1R3C40Mf7QsEsZ6ZugK5EBgXpbxakmwLX6habzaV8eKAKP96xlxBf17XFkQU5cBqK1pSEx1bHofk+QMkqcrwyfDWNpZFRczE7jrQCcKIRrHRjYm+6hRU5XDshH2ZZ83onIWrtnaW7AVjHbEkJfKVxwlGr7jfon7MTH8C+jwCkWAiG44qXDvrmUh3AF3LEIUHg5Lfsi8pIOS/NR071QQdQdR7SVTYRpFbhGW4J4XFr0R6TOwcvNfc3EqKxtQ7ZeYfO/hU7Nvoy+KiVqaYqP/dxh4jAsLL5E6dsIuxB0Rc/jmBoPnwHKlKKt1mPBxC7VBbijcmLLkVJTtXs1aY4U9cKV+pyqKAsBMTqPlSqXSfDE9TJkSNxdKuUGg1dnzvKbAgCIFZVs9ldCUxY43gZ46ArRbh0h7Ndqwy0+2GdXicckS0kgxTA40vmVro+0MTey15gkcvuZ1roZRAnBoi84sruMkejVI7h/QmrbDOGATnLpw3TyQHcbbqF89qflONPDHQHmxWnLqJ95egBn73YXQAYdQd+6GC8DxXF18D2Jdq8Qu0dLUNQYDcf+Uljy2nca6EO7xXrKGp/qWNWO9bvZWoVBs6jRIqwEZs9xrAhdKz+MYnWmF35havVeRa6QRgGPXwSPgpR/cRVdAUPn962YhaMCLUC/mut5Dk1IjDaHp83wslTVLTRyfcs50XC/BhmOUXGJz8GVtpdPnmMvnjZL6Oq51Y+JCMpBpxRbXeITb+xizahYYFvy9RchzABtGPjHUKFb1aC6euLnur3x2FEBkPrZj8kzVsUjrxx4OxruaQct7uZI/juVitYeaitRKLAdM/MdZXrXkobTvJeFwRFFnP1GKRytnwZHoD15VcQdycpJOK8AbllnoyddkGILpiHU1HAYED1OxdZLt3tUi+0vjBc6Zo4GgAqG2IeGrhJg+StSOVUE6/mte+m8VrK0N1VHMB0OtHqm/Vgr5Urua71EaCXqljvc/Ut2BefDg4ufx0wsFXeFjg1/utjfrIsp6zUa1oPP46axoAIyp5oitqLC0GRxcfk6dv10CCevpSOlbPToHp4q0qPpqPhZhlvsBxbwwxnqV0NZVIJHPhfCxRMalGKVGrVGKxfC6Zo2teb531HfYXgqyOc/XRp+cbGE8v4VpaefM7vORG6HncxmiHMmC6g42bZrtt1gB//dr5ekLp4uLihP5/52nQm7XbzRuqAsDmoLHzicAsBC4k6/u6PiBdSf6YzHzgK9iAggvdQhcXIl7JDRzl3E6kvQ+CJ/1GrKgJq+MOb0N6NXI02mFMb0uo+CvuQ9JbPCKzOevyNmRuda5LDj7/kr4YvPG00WnTUwStuuu3aYoRDPKHmZkLeu6ag/PnHneD99w1cU52NVkvHJKPs52pcQCgaaOvk+47UnS+cAhj8vvgvH+XjDUiTJ3Amc9k6c9xyFthndcUPV3NJwt3/XFn1gTIWtDgwmnebUlNLWQWASJIFY7RHjwMv+v5WLWoKwGt/ol7UHu+N8AkOc7vDuAAMbFYSEQS5ePheafXvjHQgWmNBHfsMmTel2e0Z4MH0zoKxyp1G5KopNmzNtxP9GYU/8ZDaunFEETRvM1WCYjxTC2VzNW05+5wMm5DOyTJm0SZqsJUFvNWUQADR01Wb/hy1arnk6laNa4HVEVyVG1oMasxJEF/71+YchQQNSFXu0eyHM8UqmWeyIqi7OfLv7Pn5+PxxYLOx+fn2eHnT0P+ETj6UqWLtsa0E1NfWWD4JLH3bZrosBjt19T62KQo2chLQkaVRqFKqVYwjbZagf7QaDSKh/zaLgKOqxv6IZrBS2sre3ENb06ikmeCBmc390pOnQDmOqNpSF26rlMIDVjMNYofNvdfiH9ipuvoS2m/vS8FtWYFps0g9EYO1ZSdMsHjxNK45sVgi+2A7xObI4GywMIKSNL3289bkVtWiAYCbybU+1H9B+RxZepIeXAomWPeYopsvxIvzJvEfdvhbpTXkMIvKYDNrf1La0O7ogyfufF3csauFsLDre07eAUSHu7ZblNOGaAUTr2Au+UPJzvctYVN1dE8VgvwEh4qZTqprb5s/onF2MeFn+NgK1UY7Bd1tlYtCGpuyvsI42nSjjlosRN+Rsn9l+0Xlduv/bpndSHFWKYEjLfrXklmCIYgiYKOjdJIZW0GwXN9+2XN9k06sz3fpBPghUzYjyMjnXa53ULw5GgeeJDK9W/AZnBY8SEc4wwXQdqH+23RqoR4PcOxn57sgfzkgOXMCHipmvMv6i0uZQjuhNbWJTso/czvZNjzLZZKnoltf5eeSmroydHX+nujLJbU/AhaQDgE75PimpSpi3TWkoIYfpb8J0gWOL7LZ28PLee4JOjxrKFI4Z6dmzYUfyFBheWCqL2/5zu7nln745uav7mUVJ1DoqiFWtbD9k3qEF15cfrriFVzErTnm0jjV8yWvPF9Z1f9ygYKw/uwHf4lOOu3Tk5MsXpV9LxnDruMw7YXZrmWtELfZgrZAC2CT3xfa6UluIS72i+HvMACTv0XXImxiY0K4FKUoJ7/q9vkvC3D9+vlF1mRLnXU/H9LObr1IoUpg7vcpyRyDncqMHkFZWwOd7jJXREjA+zmj4r9ux2GKuZ+/x9wuIttIYdnLrwcIQdn9Y1dKdxkn8Pt1xD/HL2Ww4AQd+G9qX1TKMn+n6Albrik2W9X9uLn15zDgIldjY9sBiEc+r7ya05ShelD8GPP2uITu8OyvcO9cAGz/KTLk8PmSvjwCZ2kxJlKhdp+LW+HxvcNtQiYXXrzfXeAGPVCyramVQ6Sbbt0zwFT+Qe32qr+r9lUpMOsB7BPwLS+wyrSmbW+18ztdw3lNOMQ+Sz/MqkcGXsL880el380tl05zokD+GB7p7rg3UnMcfvwyq9eKpVjSwp/fhaNq2u/Or/KYORosO/sU6i9Y9BLVDKKAw8qQ10AAASdSURBVJFLoA1rQuAl5lMw8p5YsOPTp3ktKTGGUAI+g16l6tmNA54Bbp0/4fOQv1VkZaVRNHlVw1n/pFRZ0AsOfDVCViJDgB0MPoSfHbVHBA8KvkyUitWTKoqP9+wBi/xyZdIMbTvyiqakU7d2py8SBeOwVHR1ngTt54oibFnIefn6Yl4NYQdQ52tI0O8Yh3h7vbCcfG4Du5M0xJeH5ZKYTt/bgWK6jH+Ht6kNqWLV8MJg+3Df2TW1wmq4wPnmWLykKqEJQkFW8kXnv58SJE2Q4lVeBxWF1AYfNDal1gJmaXCbXcHUqez5VrJAiTUtIGga3vgu9bfW1A6zkSAcPVujU/RkBztukwc33c1lufErXkuz77SFKWpYDjgK1qLVRUkJ1BMT4LjAhOD7eNo6Q5qmhc6dxUoQf61XlfUd8Cq3dueg/drdgUV6jen823VOcOlfYqh7b/eQihKEbyuu+Ui8OAHpZp/biL7OTpUzTPzCfd+zGpjXRbByeULW9UEpp86eELD3IYmSrKe/d/m3M1ve0CmAePocW2MlxR5YJTUe/grUF7+WLAifIkvHXhQ1PfnHLYGI44eiQTQ6rnjcXUWMV58O+PWIZhkAfGqFlbLodVmk+DNrjQqNL7/gJp2AGmM1HgRcLr1RKubvOsBV0ELV+umKmkBRzk1crcLorHRayaUQsRhm7baovfArQF+mclosIowi1Df94Lm+FrVAORCvVfoD5OgUYV6jg7KRVfVWgiwmr5rYji/O7yR46kYKakCyPDMtUFKPnniZCrzbqfDn1SRrhh3UPQ9VzdQDnXj99Dp89jDy3qKOp3eVdfJPSRdPDtwAUwju/2qF80VlnpCS6km9xwUy8HO56xuQKNYmdn4TN7PP9VguVpOOswPjALrvaiHImITKKzuUmySU1OS/R55rACDC7ZP+j0wumYxVry549TpVFaX9BhJtKoXu7eI9iKDRbLdvTIS3F8gGD3p3205OptDB3mtzIALAaM9m7Rv7mXQHT/acWLNJrV9hxJXdvHbZvC1vyYsHo76PCwTKiav20l2CJnSauhPIcZUF6EXUX3HrmkmCWLm04cHEupnJvQyUP2McrvtwBJSAHs6OvH1CTV3juqoDNQV1n/Bu76jCD3gjXJbyd6FXNtTFO0lUKtW/jA09UOYHenNrjDcnMXKO16Hso2ZV7Viu6NvcPkaCWBIr6bGB194LaTbG/hUIbycpyUtMVhQKmS3l8WgSr+0ae1fy+mSE57ebLXOJ29qeLxxfQWLlxz9meYtrs5p3YRiDbrimCn7wBw4SVEmtHfZ7yOre7nwsAuOtTvJeSAm/9BCYw7MJnBskABlPw0LMb25++YmZZCnbe6QTRxZ3BxLz2irjtlX4VULUTbKWCf+YPDXNC/6AeTnZ18lxMvaTBTvpRv60/zC4oXofm5fsNjvDTKWs+Y+vvykJkhhvJMKnP75/+PZRzoVqhbSk/eRFaCVJEk9TuVD97MNLv3t2GkllREnad+RiCynzVhBv7HubtwZm1jaY+OW0paXUq0gUxX3fE/9O7/RO7/RO7/RO7/RO7/RO7/RO/z/R/wOvo5DvuQOZbQAAAABJRU5ErkJggg==;" vertex="1" parent="1">
                    <mxGeometry x="150" y="648.5" width="125" height="125" as="geometry"/>
                </mxCell>
                <mxCell id="14" value="" style="shape=image;verticalLabelPosition=bottom;labelBackgroundColor=default;verticalAlign=top;aspect=fixed;imageAspect=0;image=data:image/svg+xml,PHN2ZyB4bWxucz0iaHR0cDovL3d3dy53My5vcmcvMjAwMC9zdmciIHdpZHRoPSIyNTAwIiB2aWV3Qm94PSIwIDAgMjgyLjcyIDY0IiBoZWlnaHQ9IjI1MDAiIGZpbGw9Im5vbmUiPjxwYXRoIGZpbGw9IiMwMDAiIGQ9Ik0xNDEuMDQgMTZjLTExLjA0IDAtMTkgNy4yLTE5IDE4czguOTYgMTggMjAgMThjNi42NyAwIDEyLjU1LTIuNjQgMTYuMTktNy4wOWwtNy42NS00LjQyYy0yLjAyIDIuMjEtNS4wOSAzLjUtOC41NCAzLjUtNC43OSAwLTguODYtMi41LTEwLjM3LTYuNWgyOC4wMmMuMjItMS4xMi4zNS0yLjI4LjM1LTMuNSAwLTEwLjc5LTcuOTYtMTcuOTktMTktMTcuOTl6bS05LjQ2IDE0LjVjMS4yNS0zLjk5IDQuNjctNi41IDkuNDUtNi41IDQuNzkgMCA4LjIxIDIuNTEgOS40NSA2LjV6TTI0OC43MiAxNmMtMTEuMDQgMC0xOSA3LjItMTkgMThzOC45NiAxOCAyMCAxOGM2LjY3IDAgMTIuNTUtMi42NCAxNi4xOS03LjA5bC03LjY1LTQuNDJjLTIuMDIgMi4yMS01LjA5IDMuNS04LjU0IDMuNS00Ljc5IDAtOC44Ni0yLjUtMTAuMzctNi41aDI4LjAyYy4yMi0xLjEyLjM1LTIuMjguMzUtMy41IDAtMTAuNzktNy45Ni0xNy45OS0xOS0xNy45OXptLTkuNDUgMTQuNWMxLjI1LTMuOTkgNC42Ny02LjUgOS40NS02LjUgNC43OSAwIDguMjEgMi41MSA5LjQ1IDYuNXpNMjAwLjI0IDM0YzAgNiAzLjkyIDEwIDEwIDEwIDQuMTIgMCA3LjIxLTEuODcgOC44LTQuOTJsNy42OCA0LjQzYy0zLjE4IDUuMy05LjE0IDguNDktMTYuNDggOC40OS0xMS4wNSAwLTE5LTcuMi0xOS0xOHM3Ljk2LTE4IDE5LTE4YzcuMzQgMCAxMy4yOSAzLjE5IDE2LjQ4IDguNDlsLTcuNjggNC40M2MtMS41OS0zLjA1LTQuNjgtNC45Mi04LjgtNC45Mi02LjA3IDAtMTAgNC0xMCAxMHptODIuNDgtMjl2NDZoLTlWNXpNMzYuOTUgMEw3My45IDY0SDB6bTkyLjM4IDVsLTI3LjcxIDQ4TDczLjkxIDVIODQuM2wxNy4zMiAzMCAxNy4zMi0zMHptNTguOTEgMTJ2OS42OWMtMS0uMjktMi4wNi0uNDktMy4yLS40OS01LjgxIDAtMTAgNC0xMCAxMFY1MWgtOVYxN2g5djkuMmMwLTUuMDggNS45MS05LjIgMTMuMi05LjJ6Ii8+PC9zdmc+;" vertex="1" parent="1">
                    <mxGeometry x="172.5" y="770" width="80" height="80" as="geometry"/>
                </mxCell>
                <mxCell id="24" style="edgeStyle=none;html=1;entryX=-0.021;entryY=0.657;entryDx=0;entryDy=0;entryPerimeter=0;" edge="1" parent="1" source="15" target="20">
                    <mxGeometry relative="1" as="geometry"/>
                </mxCell>
                <mxCell id="15" value="" style="shape=image;verticalLabelPosition=bottom;labelBackgroundColor=default;verticalAlign=top;aspect=fixed;imageAspect=0;image=data:image/png,iVBORw0KGgoAAAANSUhEUgAAASwAAACoCAMAAABt9SM9AAAA2FBMVEUiIiL33x4AAAD///8ACiK5qCD74x4fHx8SFSIdHiKIeyH+5R7/6B49OiIcHBwRERH39/cXFxclJSWBgYFERETj4+OPj4/Ozs6wsLDx8fFra2s4ODgMDAzq6uqGhobV1dXCwsKgoKAuLi6zs7N5eXlbW1tMTEw+Pj5jY2NLS0twcHC9vb2Ojo7YwxotLS2Xl5dYTwvGsxhoYCE0MiJxZg4hHgSKfRHKtxnu1x1kWwyjkxRoXg1NRgk2MQemlhSVhxIrJgU/OQhPSAkTEgMfHAQ6NAd4bQ+zoRaZpW9EAAAKSUlEQVR4nO2c+2PaOBLHzehib4vPD142YPOGEBKg3LVN2u12283d5v//j24k2ca2RBqnlNLLfH9oiSQ/9PFoNBoZDINEIpFIJBKJRCKRSCQSiUQikUgkEolEIpFIJBKJRCKRSCQSiUQikUgkEolEIpFIJBKJ9OL16h/fL+tnd+JEevWvi+/Xv18Ird9e2+b3yv7nq5/djdPot9f12veKYBEsVQSrgk4Fy3lEJ+jmcXQiWE7rEZ2in0fRiWCBxw7r8leJPE4GqwnuAfm/CqsTwnKtQzpFP4+iE8I6RXd+rAhWBRGsCiJYFUSwKohgVdCvBOsbUUax9pHGj4Urj4YyZwHL9bWlfNHoJrfuAMCmvwGICn1xkiN9rJj00yrLBWj0J3iIemKscif9SYT/lavkNfr4X6Rfr54DLKez1FRG2zne8nZjiW5cTWOxNGqPG7DH5VwNfAFgNeLrKRCFFvjboWjcvZ6XcLkwC+QaywsGEBVRLa7lNfAifdDZ1znAcrfsUnmUcN11DavBuLlAq82GN/OGu5lv22waZQD8pgcIZ+axsDdJ+u67UxaPlxPXWAwCFs8hf9IZY+Gq5biNq9nUY+MckuiyzUaDRcN1LnvjNgs2mvs9B1gGjLrlJxnNWN9JYMENC/rgOuhO/AgWMWul5/KbeCAEbIsDLjlBtOCAIh8bOy44IQv3tGDKOtjSkXXQZO1sXRr12Kghr+HgRa7abK7e8FnAssAbQaHEuWQzNBQBC8ZsBXvL8yFki9RVISwYev39wdES7WU/9CxYsOzUeKJW/jLRxmsnfzsLxJh7Xg5ca6z9LGBxNs28A7GgO+Xd4LBgwBYF52IgrYbsGIc1Zrn5wb9iN0Xs7iS1LWvClsUT+X02kLcF7eviYVgyLJWcCywjarJW7kHCSD5yDqvPVlGpNQyTjiAsJzMzQ5hoWO6iu2Bz0SIK2+U6CGNR5LTYpGRHaGutsmmdCSzuz/fDAJ3URtwownKGI+UJO33WE/33m3GYNwkIu0rjjAi0x2XqaNEi3nBv1OMg3pabnwzWDA5IQsSBl/Uax1ISSyCsOXPUWRym0kgQVjzZV1tOArEgK2IrX/R+oDwwkFXRWB1zcK08pVPB6rYDvYYd2QO0lsRtWS76aCOFNZqqtsIbX3HT82csyFVH41jTGNEKFNDeqrBiUeZulRGKJ1PKTgYrCPWazhJbwGBBzj8wzO4SYWkmJdHxMJKw8tYCnmo7hnA/3DphpA5od9sT0FdMHetLhe0Jh2GkVzZuErcFW2Zk65YG09pK+tgRVs4LIxRXu7ADMTrdJlO33VzpG33WVGkp4M/FwYtGMbotf54LBxGWbhQipSXjjRBWrtrd6smirQrXjr4g0tPkIdhcu8Ip6FuwbCEz+9us27W7u1q9bubaHAmWM2EzsDAcz0oQ1o32OMsSJlWEpXHJhQqn76EBgXY3CUYs3ID7+Ibvt2C94fq0S9HY6/d/8Cns3dvdnuDRUjTRijWG+XkJYS21GQkcWbyCB6W5siEG7zpBMtk5bsjYaGboshEw67J25xJn5+enaOT0/iDBmLW3+yn/611G8Gj5LIzNu/mbRVhX+oeNTlCF1Q6XPZ2WSaSBAUrEsw7xdKWmYVyYT7vIcrA5YHxPhXUhuJh37woR0to8NixczuZDAQ5LOxly/8MnvjKsg5vembnyVNdiPORpmAWUvJQDMBmMPOZdr3yN7VWDVf+jFE8mtnU0WBg+zbIYS3TtMCydZcXNQ5FvwZc5EQLjKa9wU47ROct+E4EFOn9fAVb9c/kOPtWPCguj+BDmLJcJRFiLA7BENFC2LGWBclAILJrFrKOLeBHYfMQC1dtXgGUng/DN58/Sdb27Pa5lieUzdJJ1IRfCWmkdPAZGYjYswgqUVfRjQisaHIhMcES2vK7iuZ4Oy7yTn/+066a9xg/vzeP6LMTEo1EIYsgFpR3tcc5cxJ9FWFEYHIAlPFCkWWMumbgvzSaA73aVs1WAdSs/i+L67svaTtscB5a/kNFofkmNsMp5Jqkk/izCcgfeoTgLx6wz1bzaJNMUbqepoXWluIAKsHY5WDXT3EelR4GFAyuJRnkmcL+Q1uRc+PmGUxWW02LafSwrYnPHEP+UhVMKziAQ6B6JmtKpAGstP98qBxwFFrQzq8fYtCWfNF8b6gIty5E9L8JCr69dSPs9FvHKmcb9ieBWP35hVEZYwcEnPgtuc6ufo8GC0Msl/0JPhqYIa6t76NG2m+SzirCmaqZF9JqzgGGomSvFrKrL/fHB+x2w7K8JrQ/rIq4jwHIzY5LNkwQ4wmooCV8xrqQJlWDhAF5okn9yzaTJTwkTxVkVx29ftV+VbgVY5kUWYH19MHOHHWHDYlLasDBkbIr93OiSmNNuloMvVKa5e0NTiESUpLrhypU4D/DKVfhEymnXKhG8/dc+Ho0+msdbSKebOblOzFnPTXZ3uuNSR2CWGlAZFrYvNzYwmOqXk4q5CwtKbpNdlk2SO4ZSURVYtdqXXPh+v0tjhyNssiqJKNjy4cdh+f3CzjFWrdggaV6GZbi94v4f4hiwnjRaNN9rKNiWA0HiHGHoGcUbhKaa8KgEy6x9yK92/q5XgXXwbWUeSG+UAcJjU7nJ6l+y4SZNBGDYPc5YqbC41Y2iFInlgxOwZdoEzXU4yTIKWNlvp77KcmPW26ezcEkd7q/yPFjI5SLK0fpgPx3W9U3nkGZM82IIjpARyO173w3YaCkv3Oh43iLrhQrLiFoxCxfy/tzliA0b+3O7SCdYGbLSWQUsSN/CwcuFLObpLOFjFiHz5qr3qwirZtYfcrmHP+tPhRW0H9FWN+E7rXjpyxdDLFiMGOsOh22PxYNc9sTvqQGSA7M2YzE27jJ2vSgMSoevkJnXFmdio0JmASbjGI/DOjxu2NTlaKrCQlz27X4w3j0RlgGPSe/OHHCSt2jEuGjNOtub3qbY2NdhdsGaN7fbmxUaSnl4+wD9XrOzHfT65UorgsZ8drPtzBau/paqw+K41r8n3fxsPhHW85TBMvh7a0//NobliK9u6LM7ln/wex2WvIhmW1foObA4rgdZ8Xv9ZLDOQIdgpXSKs2EutpJD8atNsMzaRV2Bhc7qy0Pauv5RVPznxcMy7d293I3IMg34h33HjWmdxlZ/i4r/vnRY9bs3iOFdrW6aCRIx6b2XH3d2nX/hPkluvX3hPstMfHf0cXeRxAhf0H7MdBvs08fd7UO6f/hwutnwDKSBtVbioI91bTEkadMXDCv13TnJXcMLlVWSjXjBsGr2+yKSZOc59VM5i3vy2vC5svo/6szPkTZ0sPPbqffrLFy4KyQdIM3R/MjfdTgjuzoUZ9Xv3t8nvj2X5OPrnNf3qZ9/yCpe/I9g1O27291uXbOL1SaWr3cXu7VpV9oK+//Q4bWh+AGjJ1UQrAoiWARLFf3YWAXRz9hVEf1AIolEIpFIJBKJRCKRSCQSiUQikUgkEolEIpFIJBKJRCKRSCQSiUQikUgkEolEIpFIJNLP1v8AuRr1o7NnqqUAAAAASUVORK5CYII=;" vertex="1" parent="1">
                    <mxGeometry x="133.92" y="870" width="157.15" height="88" as="geometry"/>
                </mxCell>
                <mxCell id="16" value="Cloud&#10;Run" style="sketch=0;html=1;verticalAlign=top;labelPosition=center;verticalLabelPosition=bottom;align=center;spacingTop=-6;fontSize=11;fontStyle=1;fontColor=#999999;shape=image;aspect=fixed;imageAspect=0;image=data:image/svg+xml,PHN2ZyB4bWxucz0iaHR0cDovL3d3dy53My5vcmcvMjAwMC9zdmciIHhtbG5zOnY9Imh0dHBzOi8vdmVjdGEuaW8vbmFubyIgd2lkdGg9IjM2NS40NjQ5OTY3NzA0MjQ5MyIgaGVpZ2h0PSIzNzkuMjIyOTk0NDYzNTc3OTUiIHZpZXdCb3g9IjAgMCA5Ni42OTU5OTkxNDU1MDc4MSAxMDAuMzM1OTk4NTM1MTU2MjUiPiYjeGE7PHN0eWxlIHR5cGU9InRleHQvY3NzIj4mI3hhOwkuc3Qwe2ZpbGw6IzQyODVmNDt9JiN4YTsJLnN0MXtmaWxsOiNhZWNiZmE7fSYjeGE7PC9zdHlsZT4mI3hhOwk8cGF0aCBjbGFzcz0ic3QwIiBkPSJNMjkuNzk0IDEwMC4zMzZMNDYuOTIgNTAuMTY4aDQ5Ljc3NnpNMCA5OS42NzFsMTIuOTc2LTQ5LjUwMkgyOS4yMkwxNi44OTcgOTIuMDU0eiIvPiYjeGE7CTxwYXRoIGNsYXNzPSJzdDEiIGQ9Ik0yOS43OTQgMEw0Ni45MiA1MC4xNjhoNDkuNzc2ek0wIC42NjZsMTIuOTc2IDQ5LjUwMkgyOS4yMkwxNi44OTcgOC4yODN6Ii8+JiN4YTs8L3N2Zz4=;" vertex="1" parent="1">
                    <mxGeometry x="191.5" y="958" width="42" height="42" as="geometry"/>
                </mxCell>
                <mxCell id="18" value="" style="shape=image;verticalLabelPosition=bottom;labelBackgroundColor=default;verticalAlign=top;aspect=fixed;imageAspect=0;image=data:image/png,iVBORw0KGgoAAAANSUhEUgAAAOEAAADhCAMAAAAJbSJIAAAAhFBMVEX19fWMjIw0NDQ5OTkUFBT4+Pg8PDuPj48hHx+goKC4uLiJiYkvLy9nZ2cRERHDwsLd3d0qKirr6+sjIiLj4+OXl5cAAADIyMjo6OhXVlZvb28oKCjPz89iYWHx8fHV1dWwsLB3d3dHR0dPT0+pqamenp5zc3OCgoJCQkJjYmJSUVG9vLzysns2AAAJ90lEQVR4nO2dbZeqLBtAE+dSCiyVMk2zMnuZ+v//78G0BLTmbtaZ1YOL/eGcNaMjbHlXwNHIYDAYDAaDwWAwGAwGg8FgMBgMBoPBYDAYDAaDwWD4vyX/dAT+nN2nI/DHwDU5wKcj8afE7ncw/3Qk/hIoLS/dDTkRM+J6NJ0NVzFfVIb0Mtj6FK7E4oYoHQ81EeeWdTNEyB+oYkkaw2CgjeKGPNIQD7Oyca2HIS0+HZk/ACakNUTpYniJGJ8swRDhwfVsYGxJhnQ1sESEjMiGiA2ssskXlmJIi0H1bJpqRjQcWGUzt6yOIUKbT0frHzImPYbB6tPR+mc8qhklDdl1KPk0d61eQ1qEn47aP2JC+g0HU9nMBUHZEKX+pyP3L4CD9dSQekNIxIw8N0R4AJVNbr0ypI72PRuYSIKq4QAqm7ks2DFEgeaVDRx+MqTfWiciLBXBriFKJzorhq71oyEt4k9H8/eo1UyvIUpdfRPR7wha7qpjiOhGW8VxpxS6OzvtGnqfjugvgUytR93VGaXTr44j1rSyyZW2nngI2XYw/eo6Ui17NlCKgyb3lFR+N8Ovr+mUScUxIDomon/q8WsMK0csOmIdK5tHb8a1dvu738OwksRBm03X2hk+ejOuxasXu6U1/BILJNvqptj0Zlzy7Yh+smHlyBrFs2Y9G9jeXhaeElv2Uw0rx7pApnpVNlD1ZtzTnqp+XcNbgawcg0wrxYXl7gra0es3rBIy4JXNpyP9BryaWZ17/Z4Y3iodnSqb0EPd7PnakDtGVKMHxJkXPFN8ZjiNLtmno/0GMJr0l8KnhlG6HemTSSsgXKS9ydhrGEWnUC+/CvC9Pse+1iJK9JskdYswzHqyasdwGjXPonSSzMd+E+eFrTqqhtHUyuuTNyeN6lKfbOM62vNd8LJfGnnNzYhdpNMICpYna9YkzSwJnhlOo/MVqrNgtC10avArSkIWdZpAXjq01zD6OjR3IfMoPX02wm8TuoSQ8p5VT0F3BDyNjvMmg554F0i/58LVXEtCJk2tmj2y6v0pRmQv60NQOshxgqVeeXR0HyEStxkTwZbS1nAaRSXUgss9tR2H6vjcG26jfELG9SxECMlttFgZRtEuvFe1Kfdz7L2Ggo9Xhzyr3hs8jzsG06qP3dRBY8QzKAfp+RIRZs3DKOIuR3WbMNnTNKLbpoW4XujNz6Gllkk4qqeu1473Tk64wKTJoP6xKoC3FNR3Ynv8eH1IyPZe8poMurDrDMoLYaHvfGHx3QxxZ+3vgWdX5w7VecZJ3WTcHRfNGKmqcuxWUMeGouUxN7jOqiXPqrzZSFs/x060fO/UIr8GJmSWbx8FsK5mdBpR9PFoMu6sAlsU1LeheCBP3LNcTxJEQ5i6F5Lnhrat3Yiij4w8NQx0biha5NfdoiE9DUJQbjJEQ+0bihaf9Boivd6nvaJaANw1pENaDpw/Zke1hmg4C0oq5p00tB39nuS/Qlid1xhSTWd6PQVK2RANpaEQIKKhbX86On+ATwTDYEgr8+7UE4ZrQ6r9GoR+DqQxRLpOmf2JuVsb2udhNRQt1Wy+ypBq9h7tHUrCDYfYUDwIXddD+r1He4eN5aX6vUd7B5isB9pQtOj2Mvt9hp6CBoPBYDAYDAaDwWAYGgBDH8v6a52Wmv0CmH2NPx2HvwVmWP/5Wi8xhvpjDPVngIaKzvAM81Je1jI8Qz+S32sO0BATY6g5xlAbAPrHffDM8Nkf3A/997vw5unyHyqXeX7q0v1er8bqKpbZ9XrdBsfqv0eTURuCXx69U7OCUrlYvN2t191j4FdznwE2V2nFGsDV4mGXnblEufybjTA1PL9CFefDauXOGqsqVG+3nfc7wvWMGaUBxt/iVSGLMMbMpvzfr8dq1pthfPzCAU1xdwoQhITxQ/yYuo0uXNB8BBMHf4kbmMGWNmGv5NjBUfqK2TJqP9sG4+kSNpcqCgwXt/uWLxhOq6uQvps+sjDdzfz5ZrJOpf3g80lZlofA2/L/MtHQR8FutvGzhY2Vz8WBX7CizOZ+5p5xIsUZEmcerzBdW8I8djhhdFrysLdJiuQ1GCskGs7wQjDE2YQ57nKzWZ4o5skYfmMeqp+Ve+x1lwGAxfZZs3x1Im95X+XsObakHM4ND/vzsv4Dv0ilaMG8SN1m8W+8YhdxihAk582afWdSadmx5L6TxpgG0rc9XhkG48Cb17XBzGb+6MjqFdSQ71hn4hVM2N5vEyhQ1x53a5rgnN4LLGzoXty1I1+LeZOHJhkWR+ZK3VwYp8kjV8E2OItOrwypfbkHC9f0eGXf95TLE6zOYM1tcfUDlOwo34Mew6BdTQCWuEEnbNlRODVMxG/JQYKoMkt/7lDBAhZMDOqlIW0vDGu0bxW4sJKIsFUM9lS+Bz2G4pacGylX7KVdZWHGBCVuqCw55ErSyotwnwrZ+mUuTYSrTALp6zyFrRgmshFPRHnxatdQSuX4vG99MyxngPwipBEPSckeYRJIc/m4sVA3vzKU0mlDxQXF4ClfJciDixxszLwfDLF44/O1/SiIUGK59QBXyMOQqNtb+8rHSiALVv/NUNq7Nqdi3QGELaWrZsH6OpFw5EmSfX0a8WfRkARj6VJXEgjxUnILF2I7OezSOT8zvMqG0jRHWohFw1UMlxRhCRY4Up+jx3D7zPCIUvliKRMNbWUszQuQGjZ6Zrhlzw2D5JVhFiRjmcNMOuGdNDxRV7nYuJWqWnzZcMlWnbCfGPKi98Jw/cow5jdA5UdD8Rei4Rhfn1+rYzjy092LsFdyS/JrQyh+2F7kDUNeHbz4XGzXMC7Q802+4JSKp38HvzY8MLlrqY5A3jHMbUcZN7xMQzgpm2BJpy/ECjOk9LeGoxg7YgcZduWvc6naK4FsLWa0juFoE0hfKslXYruW4bbR4z263xvyRFy3Wxfyvv7u94ajvGBCA+jbTGgfegx52yV2AnZYHHDlCWu7QOj8e8MRrNi63pqLd80JU5cMvGUIS3TfypIPdc/SELHHsLJotlXiA8sdk74XzHuYl2bjFzjS39elnHDFnMM8DuP5ds8Kdaz9liE/auPVLA7DOCNpKk1e7zPkHTc+sLuFPS6Ysk0kT+Fixu93mH3jyfJFi/+6PbzBR7JBcSkCTLt7bfpT9YlwJL0DXssbyMLGY9je722G9xPpQnCxezbcyS2KaXE5pxi5nbDdlJ09r8BoArOpaDiVJLBsOO0xhPl4VZz3u0PPwqvcVcZb4UGMKMxkD55FlyQ5F2tyVSIMWe8+CuAveNiX3bjnEQtkpz1CyYIfCi0hGvOFlJ23Uor6h55QqniFcfjkadsPv+gehzwO8//89AyasPuPhXHcPDMQT1DunfLjfwzYYDAYDAaDwWAwGAwGg8FgMBgMBoPBYDAYDAaDwWBo+R9CEMDx6sRBugAAAABJRU5ErkJggg==;" vertex="1" parent="1">
                    <mxGeometry x="590" y="733" width="225" height="225" as="geometry"/>
                </mxCell>
                <mxCell id="25" style="edgeStyle=none;html=1;entryX=0;entryY=0.644;entryDx=0;entryDy=0;entryPerimeter=0;" edge="1" parent="1" source="20" target="18">
                    <mxGeometry relative="1" as="geometry"/>
                </mxCell>
                <mxCell id="20" value="" style="shape=image;verticalLabelPosition=bottom;labelBackgroundColor=default;verticalAlign=top;aspect=fixed;imageAspect=0;image=data:image/jpeg,/9j/4AAQSkZJRgABAQAAAQABAAD/2wCEAAkGBxIQEBUQEhAQFhUWFhUSEhYQFxUYGBUXGhUYFhcaHRUYHSsgGRolHhcWIzEhJSkrLy4uFyAzODMsNygtLisBCgoKDg0OGBAQFi8hHx4rLS0tNysrLSsrNy0rLTcrKzA3Ly01Lis3Li0rKzcrKysrLS0rKysrLS0rMjYvKysrMf/AABEIAKgBKwMBIgACEQEDEQH/xAAcAAEAAwADAQEAAAAAAAAAAAAABQYHAQQIAwL/xABFEAABAwEEBgUKBAIJBQAAAAABAAIDEQQGITEFEkFRYXEHEyIygRQjNEJSYnKRscFzgqGykrMkMzVDY3TR4fAVU4PC8f/EABkBAQEBAQEBAAAAAAAAAAAAAAABAgQFA//EACURAQACAgEDAwUBAAAAAAAAAAABAgMRBBIhMSJB0VFhgaGxE//aAAwDAQACEQMRAD8AzJERQEREBERAREQEX2NkeIhMWHqy8xB+wvDdYt50+h3FfFAREQEREBERAREQEREBERAREQEREBERAREQEREBERAREQEREBERAREQEREBdjR1ifaJWQs7zzSuwDa48AKnwXXWi3A0N1UXlLx25R2K+rHgR/FgeQarAuOjrswz6OksFKNo0RuzLXgEtfxOtid9TvWH26yPglfDI3VfG4seNxH1G0HaCCvRV2e6/mPoVSemO7Os0aRibi0CO0AbWZMfTeCdU8CPZVlGSoiLKiIiAiIgIiICK69H93Y5mutEzA9oJjjY8VaTTtOI250HIncv1ey5scMbrRDI1jW4ujlJpnkx2ddzTWu8K6FIREUBERAREQEXC5aK5Y8kNCLg7lygIiICIiAiIgIiICIiAiIgIi5a0kgAEkkAAZkk0AHElBL3V0P5XaA0jzbKPl4iuDfzHDkHLWAom7OiBZLOI8Nc9uUja47K7hkOXFSy1CLBdk9l/MfQqVtELZGOje0Oa4Frmuyc0ihB4EKIuyey/mPoVM1VHnK+GgHaPtb7OalnfhcfWjJOrjtcMWniK7QoVb30j3a8vshLG1nhrJDTNwp24/zACnENWBrMq5REUBERAREQan0c+gj8ST7KE6UbS7XhhqdUNMhGwuJLR8gD/EVNdHPoI/Ek+ygOlD0iH8I/vctewp8ELnuaxjS5ziGtAzJJoFYtLXJtMDBI3VlFKvEQOs07aNzeOIx4L8dH8YNvZUZNkcOB1SPuVp+krYIIXzOxDGl9BtoMB4mg8VIGHf8AxF2NIW19oldNIQXONTQUA3ADcF9dEaKltUnVRNBNKuLsGtG9ztnAZnYpM6WImZ1DolWO79z7RaqPcOqi9qQGrh7rMzzNBzV1u/cuCzUfJ52UY1eOy0+6z7mp5KxWq1MiYZJHtY0ZueQAPmuHJy/aj08PAiI6ssofRd0bJZwKRB7h681Hmu+h7I8AFMueyMAEsaNlSGqg3g6QCax2QUGXWyDH8rDlzd8lRrTM6RxfI5znHNzyST4lSvGvfveWr83Hj9OOu26WmyRTNpJHG9p9trXD9VUNO3AjeC+ynq3ew4ksPI5tPzHALq9GtltLXOe7XbZy3sh9aOfUULGnIU1qkZ1Gey/VXwmbYb6rZ1VrXkY93rpg9ps74nmORpa9po5rswf+bdq+a2PTl2rPbCHSNcHgaofGaGmfEHxG1U3TFwJoxrQPEo9l1Gv8D3Xfou3HyqW89pebl4OSkzNe8ftTkXMjC0lrgQQaEOBBB3EHEFcLpcIiIgIiICIiAiIgK33A0PrvNqeOyw6sddr9ruTR+p4Ks6NsLrRK2FmbjSvsjMuPABa9YrKyGNsTBRrAGj/U7yc/FWB2KrhcItIsF2e6/mPoVMqFuz3X8x9CppQFiPSrdryW0+UxtpDOSTTJkubhydi4fm3LblG3h0Qy22aSzSZPGDtrHDFrhxBof0Qea0X30hYn2eV8Eoo+NxY8cRtHAihB3EL4LKiIiAiIg1Lo59BH4kn2UB0oekQ/hH97lPdHJ/oX/kf9ioDpP9Ih/CP7ytew6PR56c34JP2q93x9An+AfuaqJ0e+nN+CT9qvV8PQZ/gH7gkeBkC2G62jW2eyRsAGs5rZJD7T3NBOO2mQ4ALHnZLb9H/1MfwM/aFIELei9bbFSNjQ+UiuqTRrBsJpj+UbBswrnGldLTWp+vNIXeyMmt+FuQ+q7V7nE26ep9engGgBRCxFKxO4ju3OW816Zns72idDz2p2rDGTTvOODG83fbE8FomgLkwWej5aTSZ9odhp4M2nif0UBdi+3UtbDPGOrGDXxNALebBg7mKHgVO6Zv1Z4m0h888iopUMb8Ts68B40XJmnNa3TEdno8aONSvXM7n7/Cz2idkbS97mtaMS5xAA8SqRprpBAOrZWB3+JKDqnkwEHxNOSpultMT2p2tNITTutGDG8m7OefFfnRei5rU/UhjLj6xya34nZD6q4+LWsbvPwzl5uTJPTijX9WSw9IU7XVmZG9nragLXAbwa0PIjxC0lpqK78VVLv3JigIkmIlkFCB6jTwb6x4ndkFaJpWsaXPc1rQKuc4gADiTkuXPOOZ9EO7i0y0rP+sq/fS77LTC6VoAmjaXNcPWDRUtO8UrTcfFZSr1eq+rXsfBZqkOBa+U4ChwIYM8cqnw3qiru41b1pqzzOdfHfJun5ERF0OIREQEREBEUzdTQ/lU4Dh5tlHycfZb4kfIFBbLiaH6mLr3jtyjs1zbHmPE5/LcrQv1DE551WtJO5o/5RS9k0CTjI6nutxPzyH6rSIZoJNACTsAUpZNByOxedQfN3y2eKnbNZWRijGgcdp8c19lRCWuTyMtEYqHVL9baRSmOxduyaZjfgTqHc7L+JdC8/ej5O+oUIgvSKnWTSEkXddh7JxHy2eCmrJp5jsHjUO/Nv+oUFM6X7t67Bb429qMBloA2x+q/m0mh4H3Vkq9PODJGEHVcxwLSMw4EUI4ii8+Xxu+dH2p0GJjPbhcfWjOQJ2luLTyrtUlUIiIoCIiC+dGNtFJrOTjUTN44BjvlRnzXy6T7O7Xhlp2dV0ddzgdYDxBd/CVVND6RdZp2TNx1TiPaacHDxH60WtkQW6z4gSRSCuP+2LXA+IIVGedH3pzfgk/arzfD0Gf4B+5q+OhLqw2SUzMdK5xaWjrC2jQSCaUAqcBiV9r3ithn+CvycCVUZC7JbdYP6mP4GftCxF2S23R/9TH+Gz9oUhWUXs9On+P7BRSlb1+nT/H9grv0UXfs1ustqjtETXgSR6rsnsOo7FrxiPodtUGZorbf+5Z0W9hbN1kUpcI9YUe3V1ah1MD3hiKcgoS7NkbNbbNC8VY+eJrxvaXio5EYeKgtt1OjiWeFtqtDXBju0yJpo97aVDjTEA7AMeSutmszImiONjWNGAa0UA8N6vRIAqaAD5ALz7fO/EtuleIndXZ6lrAwarpG7HPdma56uAANDXNc+fjzkntZ28XlxhiYmq0afvlBZqsZSWTLVYey0+8/fwFTyWd6Y03Pa3VlfUDFrG4Mbybv4mp4qOXK1iwUx+PL55+Vky+Z7fQREX2cwiIgIiICIiDgra+jvQdm8ka6Odkte1L1VRR5GIdUBwoKAAgYBYqu5YrXPZJGyxPkifQFrm+s0/Nr28DUKwPSsUTWCjWgDcF+1nF1ulGOSkVtaIn5CVlerd8Qzj54jktEjlDmhzSHNIq0tIIIORBGYV2j9pVcVXCCBvP3o+TvqFCKavP3mcnfUKDQcouF+JpWsaXOcGtGJLiABzJQdmz2l8ZqxxHLI8xkVDdItshtFkAnLGTMOtZ3DNxwD2audHCmOQIaTkoDTV9AKsswr/ivGH5WHPm75FVQxzT9ZOdd4YKyyOODdgBccKkkANzNcApMq6qIigIiIClrv3glsbuz2mE1fG7I8QfVdx+dVEog1nR16rJMK9c1jtrZiGEeJwPgSpFksVpjcGuZJG7WjdqkEHCjhUcD+qxVTF2tPPsclaF0bqdYz/2HvD9cuIux2tJ3MtUchbEzrWE9h4LRQbNcE4EbxUYeC0yzs1WNb7LWt+QovjYLfHOwSRPDmndmDuIzB4Ffd7w0FxIAAJJOQAxJVRkt6vTZ/j+wUjcq+c2jHu1WMkikLTIx2BwwBa8ZGh2gj6qC0lauumkl9t7nDkXEj9KL5NgeWOkDHFjSGvcAdVpdXVBOQrQ0ruWVX3pOvTZtI2eyvgcdZrpesjeKPZVsdKjIjA4gkYKsXK/tKyf5iL94UKpm5X9pWT/MRfvCo9D6ddSyTkf9mX+W5eXm5L0/p8/0S0fgTfy3LzAMkkWu5FyJdJ6z+sEULCGueW6xc6lS1rajIEVJwFRnjSw6X6IZmAus1pZJ7krerJ5PBIJ5gc1dei2AM0TZ9U11ute48XTPqPDBv5VYbVpKGJzWSzwsc7uNke1pdyBOKuh5lt1jkgkMU0b45BmyQUI48RniMCvgvTGndBWe2x9XaImvAxacnMO9rxi08s1kd6ejG0WaslmJtEWJ1QPPMHwjCTm3H3dqmhQ0ThuJB4EYEc0UBERAREQFZrp26KT+g2lrXRvNYi7NjzsDs2628bearKILXp25MkVXwEysz1T/AFjfs/wx4FR9271WrR7qRP7Fe3DJUsJrj2c2OzxFMc6q6XO095VFqPPnYwA6vrtyD/sePNdrTl3ILXi5urJskZQO8djhz8KKiwXWv1ZbdRleqmP91Ie8fcfk/lgeCtC86acu5PZMXN1o9kjK0/MM2HnhxKsF1uke0WWkc+tPFl2j51g4PPfHB3zCbGmXn7zOTvqFBr5XhvlYpI45mTBwo4agHnAcMCw93mcOKzrTd6Zp6taeqj9lpxcPef8AYUHNVFr01eqGCrGeckGFGnstPvO+wqeSpNst9otsjWnWe4nzccYNAfdYPqanip26/R/abZR8gMEPtPHbcPdjOziaDdVazd+7dmsLNWCMBxFHyOxkfzdu4Cg4KKoV1+i9zqSW5xaMxBGcTwfIMuTfmoG/uno5nix2VrGWWAkNEYAbJJk5+GYGIB21JxqFdelG9Xk8XkcLvOyt845pxjjOHg52IG4VO5Y6g5REUBERAREQEREH2sdskhdrxPcx29ppXgd44Fd63XhtU7OrkmJbtADG63PVAryUWiAtB6F7a1trmszwCJ4cnYhzoyTShzq17z+VZ8uzou3vs08doj78Tw9tcjTMHgRUHgSgvvStdCCxsjtVmjLGvk6uRje40lpc0tHqDskUyyoAqlcv+0bJ/mIv3hbvE+zaXsNSNeGZuIr2mOBxFR3XtcM94VQ0D0XGy22O0eVB8cT+sa0so8kA6oJrTA0JIGNMhsuhe9PeiWj8Cb+W5eYm5L05p70S0fgy/wAty8xtySRt3QzpASaPMHrQSvBHuyEytPIlzx+Uqk9McLhpLWcMHQR6pORALwR4GvzUXcK8n/T7WJHV6mQdXOBj2a4PA2lpx5Fw2rZL2XZg0pA0OdRw7cE0dHausB4OY4UqK40BBBAKDIrqX9tVgoyvXQDDqpD3R7j6Et5YjgM1sN2b3WXSDfMyUkAq6KSgkbvwycOLajksRvNdG1aPNZY9aOtGzR1LDjhU5sOWDvAlQcby1wc0lrgatc0kEHeCMQUFx6WwBpR9AMY4iabTq5qmrtaT0lLaZOtnkL36rWazqVIaKCtBieOa6qgIiICIiAiIg7Ojbc+zytmjPaafAja08CFrmjNIMtETZmZOGRzadrTxBWNKfuhpzyWXUefNSEB/uuyD/seHJBp5xVU05cuOWr4CIn+z/du8B3PDDgrUiozDR9zrbPMYWwEUprPfhG0HI6+TuTangtRutcCzWOkj/PzDEPkA1WH3GbOZqeSmbv8AddzH0UqiFVE3o07HYLM6d9Ce7EytOseQdVvLAknYAVJyytY0vc4Na0FznOwAAFSSdgAWC32vK7SFpLxUQsqyBpw7O1xHtOoDwAA2IIW3Wt88r5pXaz3uLnneT9AMABsAAXxRFFEREBERAREQEREBERAREQWC517ZtGylzO3E+nWxONA73mn1XjftGB2U2+716rJb2gwyt1qVdE+jZG82VxHEVHFecFxRXY3bpRvFHZrFJZw8ddO0xtYDi1jsHvIGQ1dYA7SRuNMKQ7/miArvcK/zrDSzzhz7PXs0xfDXPVHrM26uzGm49ux9HHlej4LVZpdWZ7KvZKew8hzhg4CrDgN4w2ZqjaS0dNZpDFPE+N49V4zG8HJw4gkIPSVgt0Nri6yKSOWN1QS2hB3tI2HeCsq6TLjMszfLLKzViqBNE3KOpoHtGxlcCNlRSgrSk6B03NYphNA8gims0k6sg9lw2j9RmF6Gsc8VusjX6tYrRECWu9l7cWnjiQnkeaUXa0rYTZp5bO6pMUj46nbquIB8RQ+K6qgIiICIiAiIgIiIL9cXTvWN8lkPaaPNE+swerzb9OStyxaCZzHNewkOaQ5pGwhatd/SzbXCJBQOHZkb7Lv9DmP9lRbrv913MfRSqibv91/MfRR9/LzCwWfskdfJVsIOze8jc2o5kgb1UVTpWvTUnR8LsBQ2lw2nMR+GBd4DeFmi5c4kkkkkkkk4kkmpJO0krhZUREQEREBERAREQEREBERAREQEREBERBrXR3fuyss8VinJhdGNVr3kdW+rie96hx9bDir9pbRMFsj6ueJkjDiK5io7zXDFp4grzOrJda+tq0eQ1jush2wyklo+A5xnlhwKuxZNO9E0zX1scrHsPq2g6r2/ma2jx4A81pV2NGusljgs7iC6OMNcW1oXZupXGlSaKPuxfWyW8BrH6ku2GUgO/KcnjljvAVje4NBJIAAqScAAMyScgqjBOlCz6mlZz7fVP+cTGn9WlVVTN89KNtdvnnYasc8Bh3tY1sYPI6tfFQyyoiIgIiICIiAiIgKSu/pZ1kmEmJaezI0bW1z5jMfLao1EG86L0rDDZZLU946poEmsMaimFN5NQAN5Cxi8WmZLbaH2iTCuDG7GMFdVo5VxO0knavg7Scps4speeqDzIG+9SniBiQN7iuogIiICIiAiIgIiICIiAiIgIiICIiAiIgIiICIiDhdqXSM72dW+0TuZ7D5JCz+Ami6yICIiAiIgIiICIiAiIgIiICIiAiIgIiICIiAiIgIiICIiAiIgIiICIiAiIgIiICIiAiIgIiIP/9k=;" vertex="1" parent="1">
                    <mxGeometry x="350" y="845" width="192.21" height="108" as="geometry"/>
                </mxCell>
                <mxCell id="26" style="edgeStyle=none;html=1;exitX=1;exitY=0.5;exitDx=0;exitDy=0;entryX=0;entryY=0.324;entryDx=0;entryDy=0;entryPerimeter=0;" edge="1" parent="1" source="21" target="18">
                    <mxGeometry relative="1" as="geometry"/>
                </mxCell>
                <mxCell id="21" value="" style="shape=image;verticalLabelPosition=bottom;labelBackgroundColor=default;verticalAlign=top;aspect=fixed;imageAspect=0;image=data:image/jpeg,/9j/4AAQSkZJRgABAQAAAQABAAD/2wCEAAkGBw8PDw0PDw8PDw0NDQ0NDw0PDQ8NDQ0PFREXFhURFRUYHSggGBolGxUVITEhJikrLjAuFx8zRDMtNygtMCsBCgoKDg0OFxAQFy4dHR0tLS0tKy0tLS0tLy0rLTcvLS0tLS0rLSstKy0rLS0vLS0vLSstLS0rLS0tLS0tLS0rLf/AABEIAMMBAwMBIgACEQEDEQH/xAAcAAADAAMBAQEAAAAAAAAAAAAAAQIDBQYHBAj/xABFEAACAgIAAwUEBgcFBQkAAAABAgADBBEFEiEGMUFRYQcTInEUMkKBkaEjUmJykqKxM0OCssEXU1TC8BU0Y4OTlKOz0v/EABoBAQEBAQEBAQAAAAAAAAAAAAABAgMFBAb/xAAoEQEAAwABBAIBAgcAAAAAAAAAAQIRAwQSITETQbEiYRQyQlFSgZH/2gAMAwEAAhEDEQA/APKIQhP1kOIhCEoIQhAccUcAhCEoIQjlQQjAhKCBEcICAj1HHAmOEYgKOVyw5ZRMUsiAWQSFjIlagYlGOMCOOYVMJWotRoUDHCZmRMI9QmdV88cUJdDhFGDLoNR6hCXQQhHGhQjhqNDEcQjjUEcUJdDgRPowMG7IcVUVPbYevIi70PMnuUep0J2WB7MstwDdfTRv7Cq2Q4+ZBA/AmcuTqOOni0rES4YCMT0az2WdPgzfi/axvh/J5z/GOw+figv7sZFS9S+Pt2A8zWRzfhuYp1nFbxp2y5sQAgG33RifVqCOEI0BgICUoiJQoamXlEkrNTAx6iAl8sfLOcwqNQ1MnLFqTBj1DlmTlhqTBj5I5UJMhXwwhHqZChHqMLARgDKIgFlBDUrUJQtQj1HqQKMCMCPUsBam77Kdm7eIXFFPJRXo3363yA9yqPFz4Dw7z66vExnusrqqXmtuda0XzYnx9B3n0Bnu/AOEV4WPXj19Qo27/atsP1nPz/IADwny9X1HxxlfcrWNZOEcJow6hTj1hEHUnvexv1nbvY+s+2aTtR2lo4fWC+3us37qhTpn13sT9lR5/hueX8V7acQyCf07UIe6rG3UAP3x8Z/H7p53F0/Jy+Y/7LczEPa4TwCrjGYjcy5eUG3vf0q47+YLaP3zs+zPtFdStWfp0Oh9LRQrp62IvQj1UD5Gb5Oj5KxvtItDddtOxSZQfIxlCZgG2UaWvK14N4B/JvuPmPJ9EbBBBBIKsCGUg6IIPcQemp+iUcMAykMrAMrAgqwPcQfETzP2ocBFbrnVrpbmFeQAOgt18Fn+IDlPqF8506PqJiey3qfRaPtwUsLBVl6nsVhzTqNRLCytTdYQtRalQm5EER8scNznqkBERGYjMTIItRmLcxNlHLCTuEx3D4BHASgICjEREoCARgQhNaHDUJUBAQjm+7Idm24heVJKY1WmvtHQ9e6tf2j1+QBPlvN+SKV2fREPi4JwPJzXKY1fNynT2MeSmv8Aebz9Bs+k73hvswqABycmyxvFKAtNfyJYMx+Y1O4wcOqitKaUWuqsaVFGgPM+pPie8zPPK5er5Lz4nIbisNDwjsfgYlq3U1MLkDBXe6ywrzDRIDHW9EjevEzeW2qis7nSIrOzeSgbJ/ATm+L9usDGLIHbItXoa8dQ4B8i5ITfpvfpOS4/7QmyaMjHrxfdpkVPUbHv26qw0fhC6PT1nOOLl5POTP7rsQ5PjHFLM3ItybN7tPwqf7qsfUrHyH5knxnzKkSTJue5x1isREfTnKeSMJKUytTpERKO79mHHGDHAsO0KtZjE/YI6vV8tfEB4ab0nfcSwK8mmyi5eaq0crAHR6EEEHwIIB36TxDhuWaL6L1G2otSwDfLzAHqu/DY2PvnaD2lW7/7jXrfhmNv/wCqeV1XSX+Tu448T+W62jPLeDsBw3WvdW/P6Vfv/NPgzvZvjsCce+6ptdFs5b6vw0G/mn08O9oWHYQty2YxOhzvqyn+Jeq/NgB6zrUcMAykMrAEMCCCD3EEd4nyzyc/HPmZhrIl4nxzgOThMBeg5GOkvQlqXPlvvVvQ/nNZPe8vFrureq1FeqxSrow2GH/XjPHO03BGwshqSS1TD3lFh73r3rR/aU9D9x8Z6fSdZPJPZf3+WLVxqAIpk1JIn3WlhBhGRFOUypSdyzEROcyrC7yV3L93K5Zx8z5lU6hHCNHxwjhN6gAlahqOaiQtRxRyaCUBARGXQ2bQJ8hv1nunZPg4wsOmnQ94V95cf1rmG2/DoB6KJ412ex/e5mFWe58vGDDzUWAsPwBnvs8/rbzMxVusCeUduu175Dvi4zlcRCUsdDpslgdHr/ux3a+18tTt+3nEmxuH5DoSLLeXHQg6Kmw6LD1C8x+6eJqPAdw6THSccWnut9FpUo/KVBRHPUiWEyhAiNZNFiUJBOuspW9CPMHvB8puL/QqUDFCdO5DInYezrjrU3LhuxOPfsVA/wBzdreh5KwB6eevMzj1mSq01slg+tVYloPqjBh/SceekcnHMSseJe9TlfaRgC3D98B8eJYtgPj7tiEcfLqp/wAAnVb318+s1vaWoPg5ynubEyB/8Znhcduy0Wj6dZeLw5ZSxz9JMuDCREVmTUU5S0xwMsxMs5SMJhqURDU560iEyaikGvMBGITWsqij1DUuqUoQ1HGhRwjEmjZ9lbQnEOHse76ZQv8AE4T/AJp7xPztVea3S1RtqbEuUebIwYD8RP0NTctio6naWKrqfNWGwfznwdX/ADRLdXJ+1OvfDw36mVQfx5k/5p5Hqe59scA5PD8ypRt/de8QeJesixR95QD754ep2AR3EbnTpJ/TMJYgZYk6hufZ3YyuLxi3BBHcYdoJVgO/lYD56mx45j+7ybgv1LSmVWfA13qLQR6fGR90+ITpLcM5vDaL6hzZPC1OJkVqNs+KOtTgd5Kqf8/kBOfJfttW316WHOCVIU+I7j13LWd4syepaVlyqDq1jLWB5sxCgfiRJnW+z3gL3XJlupGNQeasn+/uHQa81Xv35geRmOXlilZmViNeoAa6eXSaftjke74fmnei1D1L+9Z8A/NpuJ577SuMB2rw0OxURdeQft6/R1/cCWPzSeRxU77xDpLh5YMmAnuxZyxREnUsRMJJkQRIaUTFqcplUERLLaKc5lShHCZ1WvgIajAm9lkCOAEZhSjjEI0LUcYgJNAqz1X2Y8aF2N9Ec/psQaQHvfHJ+Ej90/Cf8PnPLDM/Ds63HtrvpbktqO1OtqR4qw8VI6Ef6zlzU764sP0BPFu2vAjhZTBQfo2QWtob7I2dtV81J7vIj1npvZftPRnp8Oq8lV3bjM22XzZT9pPX8dGffxjhdOXS1F68yN1BHR62Hc6nwInxcd547Ne3gwiKzoe0PZHKwizcpvxgTrIrUnlH/iJ3ofXqPUd00KdeoOwe7XUT0a3raNiWUhJkVZQEZm/SJmw7P8Ytwb1vr6jXJbVvS3V7+qfIjvB8D6E718Jm2WjJHoTdnOH8UDZGDd9HtPW2nlDKjnvL1bBQ+qkKe/r3zFT7NbAfjzU1+zisD+dk4Wi1kYOjMli/VdGKOPkR1nRYnbfiVYA97XbrxvoDn8UKmfPNOWvitvC+HY8O7AYdRDWmzKIO+W0hav4FA5h6NudUqgAAABVGgAAFUDwA8BPK27f8RP8Awi+q41m/zsImrz+N5WUNX5Fjof7oEV1fIqgAP37nP+H5bz+qV2Idz2m7a11BqcNltyOqm4aaig9x69zsPIbA118j5vYxJJJLMxLMzHbMxOyxPiSYMwUdSAPUgCKpGs/s1ew+VaPaf5QZ9dOOnDH7s+07lCfZ/wBi5YHMca1F/WtCY6/jaVmB8fl77sb1AvNxH/pK4j5q/wBzGMGMmTZ+yd/OshfxLb/KQC2vi1v03r85r5NMMmBiBhMTZS1FuBMgmYmwrcJG4SdyvkjhDU6ayYMZEQWWBGiYS4tRoWo9Qjk1REI4ajQVuysrKzI6HaujFHQ+asOoPynacG9omTUAuSi5SDp7wEVZGvXpysfw+c4qUsxatbe4HsGB284dbrmtahyN8t9bIB6c42n80rJ4JwjO24GMzsdm3GuWuxj5saz8X37nkEPdqe9QT5kAmcfgz1OLr0vI9mtJ2asm9d9yuldqj7wFP5z4LPZnf9nLqI/ax7FP5MZxKWMv1Xdf3XZf6GWcy7/f5H/ubv8A9TXbyx/UeHXf7NMv/iMf+G4f6Q/2b5A+tl46/wDl2H+pE41si099tx/eutb+pmJlDfW+L974v6xnJ/kOzbsTTX/bcVxE9OVFP81sw2cG4PX1s4s7+mPSLP8AKjzkVQDuAHyAEzCaitvuw6VjwNB0HEcr5EUb/HkMg8V4eg1TwpX9cvLtt/l+IH8Zz4lTXxx9zM/7Rux2jsTf0fGwMXfjTg18/wDE2/6T48vj+daNPmZGv1UtOOv4V8oM+DchjHZSPUBMoLczfE/67fE5/wAR6ypBMpDLEjIJLiOBl0QsZhAmZ1UtMepZhMTIWoRwkHxw3HqOddRIMoQEoQEISoo0KOPUOkmhR6huG5NUcseoCONBLEQhqXRcNydwjuBJ1K3AGZ0AEoRydxoyLKkgxrNaK1IaUTJMkyI5YxAxbmdFgwMQEqNCAgRAmOTROoRmSTM6p6hJ3CNHyQjhOiFKBi1ACTQ9xR6m17NYCZGSqWf2SpZa43y8yoN8u/Ab1s+W5JtkaNWJQnUPXTYl62nhdYFTtQ2LcotSwdVU/rg93WcuBFbarLViu6W2Ku0pCGxtgcvM2l+ez5TFOl4Rnaw879BjH3VeIOtO/e7t1uzr8R8fnNBlXe8YtyV1718FSciDQ8BJFpmZGXh2A97siFQVqstJYkDlRdkdAes+YTd9kCPpL8wJX6LlcwB0Svu+o3KFleTiZbGiip8U471tShQ8rsVKMd/F3d5km8xI0W4EyTOwycKvGNdSjhrctdbXHLtX39rsNkDf1F13ai18HJKYzPr4zTTXfatDh6dg1srBwAQDy83jo7H3TN2ZpSzMx0sUOjOwZWG1I5GPUR3eNGsimzzOJVlbKkxqEr+qj8hOQNH6xffUnXXw6zVmSJGZTCdVdjnlU4WLh5OKKkLHlW3JLcvxc/xc4bfgJyqd0Vvpio1MRMAZrQGZ/ox9177mTXvfde75v0u+Xm5tfq+G5gm5y2SzB997mmuxcwVc1Vfu9p7oto9fOZmw0pmIHrLLTedn6Uam01pjWZvvlC15JXXueXvRWIBbm3Ja2DTiE+3i62LaRbQmO4Vd1ovIh/aA2R19OnSfCZrfAQj3JEcmhkyY4jJoIo9RQr54xHyxgToyREWpcIE8s+vhWc2NctqgNy7BQ/VdGGmU/cZ80NST5GzvtweVzXTk87KwRXuT3VTEdCNDba8jNaIQBkjwNhwrPSpb67azZTkIiuEfkdSrcysp0R3+E+TLNZc+6V1r6aFjKz93XZAAmLcNyfeq+3g+eMexnKlg1F1WgQCC663FhZwroy6ipJyVoUMDoLyOWO/Pe58UJJgBm5t4ljXitsqq736ItZsosQC5VGlLBh0OumxNNDUT5GXKdGdjWhrrJ+FC/OVGvFvGfTwbNGPkU3FSwrYkqCATtSP9Z8Oo4+sAx2T6kmKEUDfYPEsOixb6qMgXIDy1tchpDEa2SBzEek1O97J7yST85gEyAyR4Gy4Jnrj3ra6e8VVccnTrsa8Zg4hkC222wLyrZYzhenwgnep8whLnnRSKWIABJYgAAbJJ7gBNzlUPVw8LarVvZnc6o4KsVWnRbR662ZpVYgggkEEEEHRB8wYXXM527M51rbsXOvmZJ8qgCffhti8hF9dxfmJD0ug2uh8JVhrv319Z8IjgfdxjiAvdOVCldNSUVqzc78i9xZvE9Z8AjhEeARR6hAIo4oDhFCBihCOb1kQhCNBCEDGqUIQk0KEcNSAhDURgOAiEqTQGIGEAIDi1K1HAAIwIQ1AqEQjhRFqPcRMAji3FuTRUItxbgVuImLcUB7huKEB7hFCBMBCE2gjhCARGEJAo4QkBCEICMUIQASoQkBKEISgMIQkBGYQhSgYQhBCEIUQEUIQ4QhCgxQhCCEIQCEIQP//Z;" vertex="1" parent="1">
                    <mxGeometry x="340" y="651" width="159.38" height="120" as="geometry"/>
                </mxCell>
            </root>
        </mxGraphModel>
    </diagram>
</mxfile>